HIERARCHY
ROOT Hips
{
	OFFSET 0.000000 0.000000 0.000000 
	CHANNELS 6 Xposition Yposition Zposition Zrotation Yrotation Xrotation
	JOINT LeftUpLeg
	{
		OFFSET 1.363060 -1.794630 0.839290 
		CHANNELS 3 Zrotation Yrotation Xrotation
		JOINT LeftLeg
		{
			OFFSET 2.448110 -6.726130 0.000000 
			CHANNELS 3 Zrotation Yrotation Xrotation
			JOINT LeftFoot
			{
				OFFSET 2.562200 -7.039590 0.000000 
				CHANNELS 3 Zrotation Yrotation Xrotation
				JOINT LeftToeBase
				{
					OFFSET 0.157640 -0.433110 2.322550 
					CHANNELS 3 Zrotation Yrotation Xrotation
					End Site
					{
						OFFSET 0.000000 0.000000 0.000000 
					}
				}
			}
		}
	}
	JOINT RightUpLeg
	{
		OFFSET -1.305520 -1.794630 0.839290 
		CHANNELS 3 Zrotation Yrotation Xrotation
		JOINT RightLeg
		{
			OFFSET -2.542530 -6.985550 0.000000 
			CHANNELS 3 Zrotation Yrotation Xrotation
			JOINT RightFoot
			{
				OFFSET -2.568260 -7.056230 0.000000 
				CHANNELS 3 Zrotation Yrotation Xrotation
				JOINT RightToeBase
				{
					OFFSET -0.164730 -0.452590 2.363150 
					CHANNELS 3 Zrotation Yrotation Xrotation
					End Site
					{
						OFFSET 0.000000 0.000000 0.000000 
					}
				}
			}
		}
	}
	JOINT Spine
	{
		OFFSET 0.028270 2.035590 -0.193380 
		CHANNELS 3 Zrotation Yrotation Xrotation
		JOINT Spine1
		{
			OFFSET 0.056720 2.048850 -0.042750 
			CHANNELS 3 Zrotation Yrotation Xrotation
			JOINT Neck1
			{
				OFFSET -0.054170 1.746240 0.172020 
				CHANNELS 3 Zrotation Yrotation Xrotation
				JOINT Head
				{
					OFFSET 0.104070 1.761360 -0.123970 
					CHANNELS 3 Zrotation Yrotation Xrotation
					End Site
					{
						OFFSET 0.000000 0.000000 0.000000 
					}
				}
			}
			JOINT LeftArm
			{
				OFFSET 3.362410 1.200890 -0.311210 
				CHANNELS 3 Zrotation Yrotation Xrotation
				JOINT LeftForeArm
				{
					OFFSET 4.983000 -0.000000 -0.000000 
					CHANNELS 3 Zrotation Yrotation Xrotation
					JOINT LeftHand
					{
						OFFSET 3.483560 -0.000000 -0.000000 
						CHANNELS 3 Zrotation Yrotation Xrotation
						JOINT LeftHandIndex1
						{
							OFFSET 0.715260 -0.000000 -0.000000 
							CHANNELS 3 Zrotation Yrotation Xrotation
							End Site
							{
								OFFSET 0.000000 0.000000 0.000000 
							}
						}
					}
				}
			}
			JOINT RightArm
			{
				OFFSET -3.136600 1.374050 -0.404650 
				CHANNELS 3 Zrotation Yrotation Xrotation
				JOINT RightForeArm
				{
					OFFSET -5.241900 -0.000000 -0.000000 
					CHANNELS 3 Zrotation Yrotation Xrotation
					JOINT RightHand
					{
						OFFSET -3.444170 -0.000000 -0.000000 
						CHANNELS 3 Zrotation Yrotation Xrotation
						JOINT RightHandIndex1
						{
							OFFSET -0.622530 -0.000000 -0.000000 
							CHANNELS 3 Zrotation Yrotation Xrotation
							End Site
							{
								OFFSET 0.000000 0.000000 0.000000 
							}
						}
					}
				}
			}
		}
	}
}
MOTION
Frames: 15
Frame Time: 0.041667
-9.451528 19.416490 -4.978415 -137.972516 -88.963435 133.480352 -7.933804 -14.189803 -25.650735 4.817962 12.530016 43.392284 3.044644 -9.284508 30.634315 0.965600 -6.256500 -17.530400 13.744765 8.379465 -26.123883 -6.125611 -12.826706 40.616317 1.322904 -17.555007 33.225487 -0.499600 -4.531400 12.576700 5.879512 1.389037 4.010089 2.420479 0.899962 -1.417887 3.108983 -1.023459 34.130959 1.057100 -1.302000 14.812800 -80.007023 39.588334 14.302539 47.792032 -49.685756 -23.884431 0.317813 -0.248481 -4.782693 -7.125000 0.000000 0.000000 68.971765 -33.787165 36.304297 -38.376014 45.109580 -18.216975 0.483266 0.017260 -1.488800 7.125000 0.000000 0.000000 
-9.662865 19.051846 -4.980523 -142.103280 -88.784508 136.840505 -8.249753 -13.941387 -24.912691 5.304586 12.959733 45.268389 3.062911 -10.096024 30.573676 0.739700 -5.494100 -15.323500 14.224306 8.322503 -25.486086 -6.649822 -13.247991 42.623965 1.133338 -16.964341 33.274297 -0.609600 -4.997500 13.901600 5.875697 1.435455 3.891565 2.402552 0.925647 -1.357059 2.491854 -0.904199 33.034596 0.713100 -1.220000 14.218100 -81.444690 40.085731 12.394627 47.502111 -49.527878 -23.632720 0.316172 -0.237741 -5.211557 -7.125000 0.000000 0.000000 69.850879 -33.723421 34.553213 -36.938928 44.189359 -17.121465 0.515657 0.013800 -1.295877 7.125000 0.000000 0.000000 
-9.856231 18.669130 -4.986647 -145.823347 -88.622662 139.789079 -8.616540 -13.745439 -24.332203 5.856679 13.410645 47.314203 3.059457 -10.888109 30.425839 0.597300 -4.947500 -13.759000 14.742014 8.311231 -25.058976 -7.095070 -13.670581 45.197687 1.026287 -14.700826 31.235235 -0.076100 -1.779000 4.895400 5.836792 1.492778 3.697955 2.397635 0.955952 -1.520314 2.022413 -0.691012 31.982684 0.466000 -1.093300 13.656900 -82.764103 40.241888 10.568751 46.556181 -49.071497 -22.852251 0.297682 -0.237368 -5.868621 -7.125000 0.000000 0.000000 70.800843 -33.398207 32.804737 -35.088370 42.936329 -15.736951 0.552936 0.019866 -1.802228 7.125000 0.000000 0.000000 
-10.033433 18.267339 -4.995683 -145.954720 -88.416698 139.123381 -8.874139 -13.624874 -23.865271 6.410788 13.842622 49.360534 3.060062 -11.945266 30.151072 0.585600 -4.899700 -13.622700 15.499170 8.028119 -24.810859 -7.591718 -14.150074 48.417747 0.965088 -11.424237 27.087285 -0.208600 2.940700 -8.113600 5.708437 1.572639 3.678159 2.329410 0.999300 -1.729087 1.907234 -0.452124 31.272873 0.405600 -0.936900 13.369400 -83.793815 39.850697 9.021345 44.956556 -48.280800 -21.569928 0.275562 -0.226855 -6.761473 -7.125000 0.000000 0.000000 72.017220 -32.504123 30.836205 -32.767861 41.227278 -14.037397 0.615003 0.031496 -3.245727 7.125000 0.000000 0.000000 
-10.196278 17.851693 -5.000000 -146.024576 -88.192922 138.238919 -9.075538 -13.716441 -23.328598 7.073178 14.299840 51.611097 3.011790 -12.397234 29.948014 0.242000 -3.165700 -8.740500 16.344331 7.496587 -24.483046 -8.268563 -14.702142 52.062661 1.267795 -8.773922 19.381994 -1.119200 6.720500 -18.889800 5.551046 1.714642 3.981446 2.228868 1.079999 -1.959845 1.905954 -0.269358 30.708898 0.404500 -0.800400 13.230100 -84.502532 38.830475 7.848565 42.880371 -47.195449 -19.941128 0.240480 -0.216933 -8.027844 -7.125000 0.000000 0.000000 73.377987 -30.992661 28.420606 -30.094950 39.066851 -12.149159 0.685612 0.042657 -4.741544 7.125000 0.000000 0.000000 
-10.347276 17.428417 -5.000101 -145.419418 -88.081129 136.750846 -9.261762 -14.049167 -22.939481 7.837993 14.772887 54.234243 2.881216 -14.121740 26.853823 0.001300 0.233100 0.640400 16.965310 7.184358 -24.212089 -9.266064 -15.307986 55.755790 1.676514 -8.396228 13.400069 -2.213000 9.296300 -26.726800 5.394816 1.848893 4.269758 2.120853 1.154742 -2.226918 1.873460 -0.077738 30.201159 0.402000 -0.675000 13.116200 -84.792614 37.427184 7.277150 40.354238 -45.756182 -18.008031 0.196557 -0.220404 -9.885763 -7.125000 0.000000 0.000000 74.408293 -29.156373 26.251329 -27.249931 36.538675 -10.235381 0.760680 0.055531 -6.296424 7.125000 0.000000 0.000000 
-10.482712 17.066785 -5.002610 -145.112658 -88.155153 135.715551 -9.581417 -14.308815 -22.482599 9.078024 15.375353 57.738331 3.031822 -19.591030 14.384923 2.120300 -9.112400 -26.147500 17.207386 7.026537 -24.017455 -10.180745 -15.829304 59.183174 1.665471 -7.405743 7.263523 -1.935800 8.731100 -24.957600 4.974307 1.981584 4.539201 1.967992 1.216770 -2.468330 1.653794 0.052194 29.817448 0.257000 -0.555300 13.072000 -84.584682 35.581059 7.168503 37.310083 -43.827997 -15.754927 0.149186 -0.224892 -11.561269 -7.125000 0.000000 0.000000 75.311216 -26.925293 24.377300 -24.256608 33.590598 -8.338549 0.830982 0.053323 -7.632486 7.125000 0.000000 0.000000 
-10.612024 16.729449 -5.004719 -142.637394 -88.193951 132.653147 -9.434230 -15.067175 -22.302678 10.363236 15.980966 61.428463 2.985698 -18.357007 11.043635 1.607500 -7.995600 -22.700600 17.350026 6.902974 -23.872499 -10.960842 -16.229530 62.137859 0.969793 -5.206598 1.061275 -1.347600 7.349200 -20.754200 5.046647 2.007342 4.939692 2.066895 1.248032 -2.545259 1.252425 0.318377 29.579431 0.095100 -0.435300 13.152900 -84.885823 33.034122 6.842581 33.726752 -41.234101 -13.212269 0.100865 -0.230997 -12.662013 -7.125000 0.000000 0.000000 75.609011 -23.994923 22.410417 -20.944902 29.992674 -6.415556 0.908259 0.000437 -7.743887 7.125000 0.000000 0.000000 
-10.736216 16.357275 -5.007329 -140.635803 -88.148937 130.203830 -9.475551 -15.150207 -22.521047 11.580179 16.482821 64.749838 3.145729 -18.203342 6.228518 0.793800 -5.687000 -15.878800 17.515232 6.636482 -24.026388 -11.738359 -16.574593 64.757529 0.184821 -3.403231 -4.025523 -0.880200 5.980900 -16.728900 5.372255 2.046612 5.201000 2.278357 1.293227 -2.607231 0.816376 0.681795 29.520405 -0.040500 -0.312200 13.289100 -85.191175 30.079714 6.558583 29.793198 -37.954061 -10.576388 0.045469 -0.241786 -13.630558 -7.125000 0.000000 0.000000 75.623018 -20.822784 19.758216 -17.482608 25.842192 -4.630559 0.957305 -0.136817 -6.443737 7.125000 0.000000 0.000000 
-10.858801 16.062207 -5.012048 -133.454815 -87.777888 122.867053 -8.973589 -14.691292 -23.050429 12.644833 16.934044 67.611474 3.396056 -18.407064 2.078213 0.376500 -3.940700 -10.909900 18.138199 6.088252 -24.116924 -12.344889 -16.793046 66.665445 -0.518034 -2.202707 -8.634920 -0.556600 4.779000 -13.279300 5.890020 2.147880 5.101474 2.268960 1.363306 -2.644145 0.525747 1.085817 29.693878 -0.107200 -0.172900 13.460900 -85.353500 27.200762 6.108754 26.102743 -34.428563 -8.279394 -0.010002 -0.258912 -14.433526 -7.125000 0.000000 0.000000 75.548487 -17.945177 16.311696 -14.266252 21.628703 -3.206000 0.975133 -0.331959 -3.492567 7.125000 0.000000 0.000000 
-10.976869 15.812016 -5.015963 -127.156333 -87.303190 116.589730 -8.343513 -13.971752 -23.700326 13.589133 17.318996 70.058016 3.728848 -18.673769 -1.950177 0.390200 -4.011200 -11.108100 18.941296 5.340878 -24.236686 -12.847850 -16.954373 68.159349 -1.219424 -1.376828 -13.316488 -0.330700 3.695700 -10.222200 6.336863 2.224099 4.835231 2.144020 1.410249 -2.645280 0.171286 1.557771 29.844961 -0.246000 0.022700 13.559500 -85.523878 24.632810 5.558488 22.947238 -31.058683 -6.486428 -0.070205 -0.262047 -14.572503 -7.125000 0.000000 0.000000 75.512320 -15.153318 11.651953 -11.391300 17.584173 -2.148553 0.957888 -0.563873 1.400680 7.125000 0.000000 0.000000 
-11.082286 15.604294 -5.024999 -126.364538 -87.252184 116.046501 -8.228953 -12.972468 -24.574039 14.457505 17.622324 72.218461 4.162852 -19.329401 -5.957797 0.676200 -5.258300 -14.646700 19.272116 4.590555 -24.587404 -13.281398 -17.115893 69.359595 -1.969836 -0.606795 -17.506755 -0.111300 2.151000 -5.923200 6.584555 2.250147 4.372119 2.265210 1.422699 -2.691500 -0.131942 2.035946 30.135138 -0.363100 0.222600 13.707900 -86.176723 22.452987 4.018422 20.356546 -28.025652 -5.140662 -0.122186 -0.245121 -12.229944 -7.125000 0.000000 0.000000 75.534828 -12.691284 5.355167 -9.174088 14.316604 -1.492225 0.891841 -0.804898 8.446877 7.125000 0.000000 0.000000 
-11.174552 15.401792 -5.035641 -127.144223 -87.434469 117.157441 -8.426230 -12.053679 -25.545088 15.267273 17.872194 74.340538 4.459974 -18.909952 -9.243849 0.949700 -6.206300 -17.384200 19.400142 3.988672 -25.231189 -13.800359 -17.308348 70.832220 -2.527222 -0.302426 -20.957677 -0.020500 0.923300 -2.537800 6.628570 2.269582 3.831930 2.435143 1.424683 -2.812791 -0.329399 2.477873 30.499114 -0.422600 0.405100 13.901000 -86.946824 20.690691 2.227055 18.686044 -25.929836 -4.330189 -0.147215 -0.241539 -9.748293 -7.125000 0.000000 0.000000 75.671727 -10.576537 -1.801671 -7.724391 12.111366 -1.146769 0.787899 -1.013448 16.516476 7.125000 0.000000 0.000000 
-11.260693 15.234027 -5.039256 -129.185503 -87.516593 119.519727 -8.577503 -11.248959 -26.421407 15.969498 18.071303 76.323737 4.573915 -18.364152 -11.086641 0.852900 -5.889700 -16.464800 19.531999 3.802457 -25.985423 -14.402972 -17.505781 72.686665 -2.677520 -0.723047 -23.237171 -0.022400 0.965800 -2.654800 6.477833 2.357091 3.285746 2.403284 1.450353 -2.984142 -0.597925 2.897467 30.851479 -0.545900 0.594900 14.099600 -87.594416 19.464154 1.079247 17.838265 -24.829788 -3.942103 -0.164376 -0.243690 -7.508531 -7.125000 0.000000 0.000000 76.164049 -9.055285 -7.582487 -7.227487 11.300945 -1.050327 0.713045 -1.130988 22.242668 7.125000 0.000000 0.000000 
-11.336694 15.065560 -5.035240 -132.798766 -87.420553 123.301546 -8.577749 -10.640556 -27.311107 16.695582 18.241135 78.415989 4.643235 -18.237051 -12.282287 0.818700 -5.773400 -16.128300 19.688830 4.126654 -26.849298 -15.145843 -17.699688 75.046112 -2.553610 -1.472054 -24.473815 -0.092500 1.962000 -5.400600 6.249480 2.428282 3.087207 2.197339 1.469548 -3.099756 -0.837540 3.359230 30.973268 -0.647500 0.812700 14.241400 -88.279477 18.335855 0.179387 17.731307 -24.682317 -3.888833 -0.166395 -0.259622 -6.895586 -7.125000 0.000000 0.000000 76.765108 -7.726373 -9.245477 -7.477152 11.590797 -1.108605 0.755536 -1.127793 22.425992 7.125000 0.000000 0.000000 
